# xmcd
#
# Track frame offsets:
#	150
#	32680
#	61705
#	86061
#	126006
#	146101
#	182498
#	207616
#	244581
#
# Disc length: 3807 seconds
#
# Revision: 1
# Processed by: cddbd v1.5.2PL0 Copyright (c) Steve Scherf et al.
# Submitted via: audiograbber 1.83.01
#
DISCID=7b0edd09
DTITLE=Grateful Dead - 79-11-05 The Spectrum, Philadelphia PA
DYEAR=1900
DGENRE=
TTITLE0=China Cat Sunflower
TTITLE1=I Know You Rider
TTITLE2=Cassidy
TTITLE3=Friend Of The Devil
TTITLE4=El Paso
TTITLE5=Stagger Lee
TTITLE6=Passenger
TTITLE7=Peggy-O
TTITLE8=The Music Never Stopped
EXTD=
EXTT0=
EXTT1=
EXTT2=
EXTT3=
EXTT4=
EXTT5=
EXTT6=
EXTT7=
EXTT8=
PLAYORDER=
